<?xml version="1.0" standalone="no"?>
<!DOCTYPE svg PUBLIC "-//W3C//DTD SVG 20010904//EN"
 "http://www.w3.org/TR/2001/REC-SVG-20010904/DTD/svg10.dtd">
<svg version="1.0" xmlns="http://www.w3.org/2000/svg"
 width="1536.000000pt" height="319.000000pt" viewBox="0 0 1536.000000 319.000000"
 preserveAspectRatio="xMidYMid meet">

<g transform="translate(0.000000,319.000000) scale(0.100000,-0.100000)"
fill="#000000" stroke="none">
<path d="M12 3181 c2 -4 57 -124 123 -264 l120 -256 1250 0 1250 0 110 235
c61 130 116 249 123 265 l12 29 -1496 0 c-841 0 -1494 -4 -1492 -9z"/>
<path d="M3400 2926 l0 -266 1013 -2 c960 -3 1014 -4 1054 -22 24 -10 56 -34
73 -52 25 -29 30 -43 30 -85 0 -59 -17 -96 -60 -133 l-32 -26 -1039 0 -1039 0
0 -680 0 -680 315 0 315 0 0 410 0 410 898 0 c542 0 924 4 966 10 130 19 212
75 265 180 52 103 56 136 56 515 0 339 -1 352 -23 421 -41 125 -120 204 -243
242 -49 15 -172 17 -1301 19 l-1248 4 0 -265z"/>
<path d="M6480 2931 l0 -260 1018 -3 c1125 -3 1047 1 1104 -66 76 -91 54 -192
-53 -246 l-53 -26 -1008 0 -1008 0 0 -675 0 -675 315 0 315 0 2 417 3 418 730
2 c711 3 731 2 762 -17 50 -30 90 -95 124 -199 33 -105 85 -323 120 -504 l22
-117 329 0 328 0 -5 22 c-2 13 -21 99 -41 192 -61 291 -132 496 -213 615 -46
67 -78 97 -156 141 l-56 32 68 45 c92 60 129 98 150 152 16 41 18 85 18 376 0
323 -1 331 -23 388 -44 109 -126 191 -225 224 -48 17 -138 18 -1309 21 l-1258
3 0 -260z"/>
<path d="M10324 3180 c-125 -25 -272 -115 -399 -244 -97 -97 -135 -153 -166
-243 -18 -53 -19 -88 -19 -582 0 -593 -2 -575 77 -731 82 -164 254 -315 423
-373 l65 -22 968 -3 967 -3 0 260 0 260 -852 3 -853 3 -57 28 c-31 15 -69 42
-83 58 -23 29 -25 37 -25 140 l0 109 903 2 902 3 3 248 2 247 -915 0 -915 0 0
75 c0 116 41 187 135 238 40 22 41 22 873 25 l832 2 0 255 0 255 -912 -1
c-502 -1 -931 -5 -954 -9z"/>
<path d="M12540 2930 l0 -260 898 0 c548 0 924 -4 967 -10 131 -19 221 -77
273 -175 l27 -50 0 -330 0 -330 -29 -63 c-32 -70 -86 -124 -155 -156 -45 -21
-56 -21 -688 -24 l-643 -3 0 406 0 405 -320 0 -320 0 0 -680 0 -680 1101 0
c770 0 1114 3 1147 11 71 17 219 91 292 147 81 61 159 146 198 215 62 108 62
108 62 701 0 580 -1 585 -53 699 -71 155 -234 322 -373 382 -119 52 -56 49
-1261 52 l-1123 4 0 -261z"/>
<path d="M424 2308 c7 -18 89 -193 181 -388 92 -195 186 -393 207 -440 89
-190 127 -269 403 -855 158 -335 288 -611 289 -612 1 -1 69 141 151 315 82
174 176 373 208 442 33 69 128 271 212 450 84 179 230 489 325 690 95 201 178
380 186 398 l14 32 -1095 0 -1095 0 14 -32z"/>
<path d="M3443 628 c-25 -12 -30 -37 -11 -56 9 -9 155 -12 594 -12 509 0 584
2 598 15 19 20 10 44 -21 56 -36 13 -1132 11 -1160 -3z"/>
<path d="M4710 621 c-6 -12 -10 -124 -10 -295 0 -236 2 -277 16 -290 18 -19
85 -21 102 -4 9 9 12 76 12 240 0 188 2 228 14 228 7 0 117 -50 242 -111 126
-61 288 -139 359 -174 72 -34 191 -92 265 -129 134 -66 175 -77 198 -54 9 9
12 88 12 294 0 312 1 308 -65 308 -65 0 -65 -2 -65 -255 0 -126 -2 -229 -4
-229 -2 0 -98 45 -213 101 -114 56 -244 118 -288 139 -44 21 -178 86 -299 144
-120 58 -229 106 -242 106 -13 0 -28 -9 -34 -19z"/>
<path d="M6225 630 c-62 -13 -90 -26 -130 -62 -58 -51 -65 -77 -65 -253 0
-171 5 -193 60 -238 63 -53 99 -57 570 -57 301 0 445 4 472 12 21 6 55 26 76
43 l37 33 3 104 c3 87 1 108 -13 121 -15 15 -56 17 -401 17 -247 0 -392 -4
-405 -10 -22 -12 -25 -42 -6 -59 9 -7 123 -12 353 -13 l339 -3 3 -61 c3 -57 1
-64 -24 -83 -26 -21 -35 -21 -429 -21 -268 0 -413 4 -436 11 -65 21 -69 34
-69 201 0 167 8 195 63 225 29 16 69 18 437 18 442 0 461 -2 468 -55 4 -32 28
-50 65 -50 42 0 67 17 67 46 0 50 -26 81 -100 117 -44 21 -55 22 -470 24 -234
1 -443 -2 -465 -7z"/>
<path d="M7401 627 c-31 -16 -36 -31 -16 -51 15 -14 76 -16 599 -16 439 0 585
3 594 12 20 20 14 48 -14 58 -40 16 -1133 13 -1163 -3z"/>
<path d="M8672 628 c-9 -9 -12 -89 -12 -298 0 -209 3 -289 12 -298 16 -16 93
-15 107 1 7 9 12 95 13 245 l3 232 145 -71 c80 -39 181 -88 225 -109 44 -21
206 -99 359 -174 153 -75 291 -136 305 -136 50 0 51 4 51 306 0 312 1 308 -65
308 -64 0 -65 -2 -65 -250 0 -122 -3 -225 -7 -227 -5 -3 -95 37 -202 89 -106
52 -195 94 -196 94 -1 0 -123 59 -271 131 -387 188 -375 184 -402 157z"/>
<path d="M10030 627 l-25 -13 -3 -283 c-2 -201 1 -288 9 -297 15 -18 93 -18
107 -1 6 7 13 64 14 128 l3 114 475 0 475 0 3 -114 c1 -64 8 -121 14 -128 13
-16 90 -17 106 -1 9 9 12 89 12 300 l0 288 -27 11 c-18 7 -41 8 -63 2 l-35 -8
-3 -132 -3 -133 -479 0 -480 0 0 124 c0 87 -4 127 -13 134 -22 18 -61 23 -87
9z"/>
<path d="M11851 621 c-16 -16 -19 -26 -12 -39 5 -9 73 -80 151 -157 l142 -140
-322 -5 -321 -5 -99 -105 c-54 -58 -99 -109 -99 -115 -1 -25 19 -38 59 -38 39
0 47 6 129 87 l86 86 337 0 336 0 80 -86 c74 -79 84 -87 120 -88 39 -1 72 16
72 38 0 6 -127 138 -283 294 -243 243 -288 283 -319 288 -28 5 -40 2 -57 -15z"/>
<path d="M12620 633 c-8 -3 -21 -12 -27 -21 -10 -13 -10 -19 4 -34 15 -17 43
-18 453 -18 469 0 494 -2 547 -52 46 -43 22 -114 -48 -142 -34 -14 -101 -16
-482 -16 -384 0 -445 -2 -465 -16 -21 -14 -22 -22 -22 -148 0 -150 7 -166 72
-166 58 0 68 20 68 143 l0 107 424 0 c439 0 460 -2 504 -42 19 -19 22 -32 22
-99 0 -91 12 -109 69 -109 54 0 71 23 71 95 0 102 -28 156 -106 201 -17 10
-16 13 14 50 40 49 44 113 10 165 -27 41 -110 85 -187 99 -55 10 -893 13 -921
3z"/>
<path d="M13953 630 l-23 -9 0 -289 c0 -211 3 -291 12 -300 19 -19 82 -15 101
6 15 16 17 51 17 288 0 201 -3 275 -12 287 -16 21 -65 30 -95 17z"/>
<path d="M14702 624 c-12 -8 -22 -20 -22 -27 0 -6 69 -80 152 -164 l153 -153
-320 0 -320 0 -102 -107 c-57 -59 -103 -116 -103 -126 0 -9 11 -22 25 -27 48
-18 80 -1 166 86 l81 84 331 0 332 0 86 -86 c79 -78 91 -87 127 -88 40 -1 72
16 72 38 0 12 -497 509 -558 559 -38 31 -68 34 -100 11z"/>
<path d="M3450 381 l-25 -7 -3 -163 c-2 -112 1 -168 9 -177 10 -12 110 -14
594 -14 561 0 583 1 599 19 17 18 17 20 -3 40 -21 21 -27 21 -546 21 l-525 0
-5 23 c-3 12 -5 56 -3 97 l3 75 478 5 c451 5 479 6 492 23 17 24 9 46 -22 58
-28 10 -1005 11 -1043 0z"/>
<path d="M7400 377 c-25 -12 -25 -14 -28 -166 -2 -133 0 -156 14 -172 16 -18
45 -19 599 -19 438 0 584 3 593 12 16 16 15 45 0 55 -7 4 -251 10 -543 13
l-530 5 0 95 0 95 471 5 c496 5 504 6 504 50 0 37 -46 40 -559 40 -380 0 -502
-3 -521 -13z"/>
</g>
</svg>
